<svg xmlns="http://www.w3.org/2000/svg" style="display: none;">
	<symbol id="one" viewBox="0 0 512 512">
		<path fill-rule="evenodd" clip-rule="evenodd" d="M408.056 327.995C403.62 332.993 398.723 337.573 393.432 341.668C414.681 366.693 427.5 399.099 427.5 434.5C427.5 440.023 431.977 444.5 437.5 444.5C443.023 444.5 447.5 440.023 447.5 434.5C447.5 393.818 432.642 356.606 408.056 327.995ZM221.92 271.093C134.205 274.035 64 346.069 64 434.5C64 440.023 68.4772 444.5 74 444.5C79.5228 444.5 84 440.023 84 434.5C84 355.575 147.716 291.532 226.516 291.003C224.376 284.614 222.823 277.956 221.92 271.093Z" stroke="currentColor" />
		<path fill-rule="evenodd" clip-rule="evenodd" d="M344.897 151.327C344.965 149.893 345 148.451 345 147C345 97.8467 305.153 58 256 58C206.847 58 167 97.8467 167 147C167 185.017 190.836 217.466 224.379 230.219C222.708 236.704 221.629 243.428 221.205 250.328C178.068 235.808 147 195.032 147 147C147 86.801 195.801 38 256 38C316.199 38 365 86.801 365 147C365 150.174 364.864 153.317 364.598 156.423C358.287 154.126 351.699 152.406 344.897 151.327Z" stroke="currentColor" />
		<path fill-rule="evenodd" clip-rule="evenodd" d="M328 364C387.094 364 435 316.094 435 257C435 197.906 387.094 150 328 150C268.906 150 221 197.906 221 257C221 316.094 268.906 364 328 364ZM286.035 219.893C282.11 216.008 275.778 216.04 271.893 219.965C268.008 223.89 268.04 230.222 271.965 234.107L338.606 300.07L385.035 254.113C388.96 250.228 388.992 243.896 385.107 239.971C381.222 236.046 374.89 236.013 370.965 239.899L338.606 271.93L286.035 219.893Z" stroke="currentColor" />
	</symbol>
	<symbol id="cloud" viewBox="0 0 24 24">
		<path d="M5.25589 16C3.8899 15.0291 3 13.4422 3 11.6493C3 9.20008 4.8 6.9375 7.5 6.5C8.34694 4.48637 10.3514 3 12.6893 3C15.684 3 18.1317 5.32251 18.3 8.25C19.8893 8.94488 21 10.6503 21 12.4969C21 14.0582 20.206 15.4339 19 16.2417M12 21V11M12 21L9 18M12 21L15 18" stroke="currentColor" stroke-width="2" stroke-linecap="round" stroke-linejoin="round" />
	</symbol>
	<symbol id="address" viewBox="0 0 256 256">
		<path d="M83.19,174.4a8,8,0,0,0,11.21-1.6,52,52,0,0,1,83.2,0,8,8,0,1,0,12.8-9.6A67.88,67.88,0,0,0,163,141.51a40,40,0,1,0-53.94,0A67.88,67.88,0,0,0,81.6,163.2,8,8,0,0,0,83.19,174.4ZM112,112a24,24,0,1,1,24,24A24,24,0,0,1,112,112Zm96-88H64A16,16,0,0,0,48,40V64H32a8,8,0,0,0,0,16H48v40H32a8,8,0,0,0,0,16H48v40H32a8,8,0,0,0,0,16H48v24a16,16,0,0,0,16,16H208a16,16,0,0,0,16-16V40A16,16,0,0,0,208,24Zm0,192H64V40H208Z" stroke="currentColor">
		</path>
	</symbol>
	<symbol id="vite" viewBox="0 0 256 257">
		<defs>
			<linearGradient id="IconifyId1813088fe1fbc01fb466" x1="-.828%" x2="57.636%" y1="7.652%" y2="78.411%">
				<stop offset="0%" stop-color="#41D1FF">
				</stop>
				<stop offset="100%" stop-color="#BD34FE">
				</stop>
			</linearGradient>
			<linearGradient id="IconifyId1813088fe1fbc01fb467" x1="43.376%" x2="50.316%" y1="2.242%" y2="89.03%">
				<stop offset="0%" stop-color="#FFEA83">
				</stop>
				<stop offset="8.333%" stop-color="#FFDD35">
				</stop>
				<stop offset="100%" stop-color="#FFA800">
				</stop>
			</linearGradient>
		</defs>
		<path fill="url(#IconifyId1813088fe1fbc01fb466)" d="M255.153 37.938L134.897 252.976c-2.483 4.44-8.862 4.466-11.382.048L.875 37.958c-2.746-4.814 1.371-10.646 6.827-9.67l120.385 21.517a6.537 6.537 0 0 0 2.322-.004l117.867-21.483c5.438-.991 9.574 4.796 6.877 9.62Z">
		</path>
		<path fill="url(#IconifyId1813088fe1fbc01fb467)" d="M185.432.063L96.44 17.501a3.268 3.268 0 0 0-2.634 3.014l-5.474 92.456a3.268 3.268 0 0 0 3.997 3.378l24.777-5.718c2.318-.535 4.413 1.507 3.936 3.838l-7.361 36.047c-.495 2.426 1.782 4.5 4.151 3.78l15.304-4.649c2.372-.72 4.652 1.36 4.15 3.788l-11.698 56.621c-.732 3.542 3.979 5.473 5.943 2.437l1.313-2.028l72.516-144.72c1.215-2.423-.88-5.186-3.54-4.672l-25.505 4.922c-2.396.462-4.435-1.77-3.759-4.114l16.646-57.705c.677-2.35-1.37-4.583-3.769-4.113Z">
		</path>
	</symbol>
	<symbol id="edit" viewBox="0 0 494.936 494.936">
		<path d="M389.844,182.85c-6.743,0-12.21,5.467-12.21,12.21v222.968c0,23.562-19.174,42.735-42.736,42.735H67.157
			c-23.562,0-42.736-19.174-42.736-42.735V150.285c0-23.562,19.174-42.735,42.736-42.735h267.741c6.743,0,12.21-5.467,12.21-12.21
			s-5.467-12.21-12.21-12.21H67.157C30.126,83.13,0,113.255,0,150.285v267.743c0,37.029,30.126,67.155,67.157,67.155h267.741
			c37.03,0,67.156-30.126,67.156-67.155V195.061C402.054,188.318,396.587,182.85,389.844,182.85z" />
		<path d="M483.876,20.791c-14.72-14.72-38.669-14.714-53.377,0L221.352,229.944c-0.28,0.28-3.434,3.559-4.251,5.396l-28.963,65.069
			c-2.057,4.619-1.056,10.027,2.521,13.6c2.337,2.336,5.461,3.576,8.639,3.576c1.675,0,3.362-0.346,4.96-1.057l65.07-28.963
			c1.83-0.815,5.114-3.97,5.396-4.25L483.876,74.169c7.131-7.131,11.06-16.61,11.06-26.692
			C494.936,37.396,491.007,27.915,483.876,20.791z M466.61,56.897L257.457,266.05c-0.035,0.036-0.055,0.078-0.089,0.107
			l-33.989,15.131L238.51,247.3c0.03-0.036,0.071-0.055,0.107-0.09L447.765,38.058c5.038-5.039,13.819-5.033,18.846,0.005
			c2.518,2.51,3.905,5.855,3.905,9.414C470.516,51.036,469.127,54.38,466.61,56.897z" />
	</symbol>
	<symbol id="delete" viewBox="0 0 482.428 482.429">
		<path d="M381.163,57.799h-75.094C302.323,25.316,274.686,0,241.214,0c-33.471,0-61.104,25.315-64.85,57.799h-75.098
			c-30.39,0-55.111,24.728-55.111,55.117v2.828c0,23.223,14.46,43.1,34.83,51.199v260.369c0,30.39,24.724,55.117,55.112,55.117
			h210.236c30.389,0,55.111-24.729,55.111-55.117V166.944c20.369-8.1,34.83-27.977,34.83-51.199v-2.828
			C436.274,82.527,411.551,57.799,381.163,57.799z M241.214,26.139c19.037,0,34.927,13.645,38.443,31.66h-76.879
			C206.293,39.783,222.184,26.139,241.214,26.139z M375.305,427.312c0,15.978-13,28.979-28.973,28.979H136.096
			c-15.973,0-28.973-13.002-28.973-28.979V170.861h268.182V427.312z M410.135,115.744c0,15.978-13,28.979-28.973,28.979H101.266
			c-15.973,0-28.973-13.001-28.973-28.979v-2.828c0-15.978,13-28.979,28.973-28.979h279.897c15.973,0,28.973,13.001,28.973,28.979
			V115.744z" />
		<path d="M171.144,422.863c7.218,0,13.069-5.853,13.069-13.068V262.641c0-7.216-5.852-13.07-13.069-13.07
			c-7.217,0-13.069,5.854-13.069,13.07v147.154C158.074,417.012,163.926,422.863,171.144,422.863z" />
		<path d="M241.214,422.863c7.218,0,13.07-5.853,13.07-13.068V262.641c0-7.216-5.854-13.07-13.07-13.07
			c-7.217,0-13.069,5.854-13.069,13.07v147.154C228.145,417.012,233.996,422.863,241.214,422.863z" />
		<path d="M311.284,422.863c7.217,0,13.068-5.853,13.068-13.068V262.641c0-7.216-5.852-13.07-13.068-13.07
			c-7.219,0-13.07,5.854-13.07,13.07v147.154C298.213,417.012,304.067,422.863,311.284,422.863z" />
	</symbol>
	<symbol id="facebook" viewBox="0 0 48 48">
		<title>
			Facebook-color
		</title>
		<desc>
			Created with Sketch.
		</desc>
		<defs>
		</defs>
		<g id="Icons" stroke="none" stroke-width="1" fill="none" fill-rule="evenodd">
			<g id="Color-" transform="translate(-200.000000, -160.000000)" fill="#4460A0">
				<path d="M225.638355,208 L202.649232,208 C201.185673,208 200,206.813592 200,205.350603 L200,162.649211 C200,161.18585 201.185859,160 202.649232,160 L245.350955,160 C246.813955,160 248,161.18585 248,162.649211 L248,205.350603 C248,206.813778 246.813769,208 245.350955,208 L233.119305,208 L233.119305,189.411755 L239.358521,189.411755 L240.292755,182.167586 L233.119305,182.167586 L233.119305,177.542641 C233.119305,175.445287 233.701712,174.01601 236.70929,174.01601 L240.545311,174.014333 L240.545311,167.535091 C239.881886,167.446808 237.604784,167.24957 234.955552,167.24957 C229.424834,167.24957 225.638355,170.625526 225.638355,176.825209 L225.638355,182.167586 L219.383122,182.167586 L219.383122,189.411755 L225.638355,189.411755 L225.638355,208 L225.638355,208 Z" id="Facebook">
				</path>
			</g>
		</g>
	</symbol>
	<symbol id="instagram" viewBox="0 0 32 32">
		<rect x="2" y="2" width="28" height="28" rx="6" fill="url(#paint0_radial_87_7153)" />
		<rect x="2" y="2" width="28" height="28" rx="6" fill="url(#paint1_radial_87_7153)" />
		<rect x="2" y="2" width="28" height="28" rx="6" fill="url(#paint2_radial_87_7153)" />
		<path d="M23 10.5C23 11.3284 22.3284 12 21.5 12C20.6716 12 20 11.3284 20 10.5C20 9.67157 20.6716 9 21.5 9C22.3284 9 23 9.67157 23 10.5Z" fill="white" />
		<path fill-rule="evenodd" clip-rule="evenodd" d="M16 21C18.7614 21 21 18.7614 21 16C21 13.2386 18.7614 11 16 11C13.2386 11 11 13.2386 11 16C11 18.7614 13.2386 21 16 21ZM16 19C17.6569 19 19 17.6569 19 16C19 14.3431 17.6569 13 16 13C14.3431 13 13 14.3431 13 16C13 17.6569 14.3431 19 16 19Z" fill="white" />
		<path fill-rule="evenodd" clip-rule="evenodd" d="M6 15.6C6 12.2397 6 10.5595 6.65396 9.27606C7.2292 8.14708 8.14708 7.2292 9.27606 6.65396C10.5595 6 12.2397 6 15.6 6H16.4C19.7603 6 21.4405 6 22.7239 6.65396C23.8529 7.2292 24.7708 8.14708 25.346 9.27606C26 10.5595 26 12.2397 26 15.6V16.4C26 19.7603 26 21.4405 25.346 22.7239C24.7708 23.8529 23.8529 24.7708 22.7239 25.346C21.4405 26 19.7603 26 16.4 26H15.6C12.2397 26 10.5595 26 9.27606 25.346C8.14708 24.7708 7.2292 23.8529 6.65396 22.7239C6 21.4405 6 19.7603 6 16.4V15.6ZM15.6 8H16.4C18.1132 8 19.2777 8.00156 20.1779 8.0751C21.0548 8.14674 21.5032 8.27659 21.816 8.43597C22.5686 8.81947 23.1805 9.43139 23.564 10.184C23.7234 10.4968 23.8533 10.9452 23.9249 11.8221C23.9984 12.7223 24 13.8868 24 15.6V16.4C24 18.1132 23.9984 19.2777 23.9249 20.1779C23.8533 21.0548 23.7234 21.5032 23.564 21.816C23.1805 22.5686 22.5686 23.1805 21.816 23.564C21.5032 23.7234 21.0548 23.8533 20.1779 23.9249C19.2777 23.9984 18.1132 24 16.4 24H15.6C13.8868 24 12.7223 23.9984 11.8221 23.9249C10.9452 23.8533 10.4968 23.7234 10.184 23.564C9.43139 23.1805 8.81947 22.5686 8.43597 21.816C8.27659 21.5032 8.14674 21.0548 8.0751 20.1779C8.00156 19.2777 8 18.1132 8 16.4V15.6C8 13.8868 8.00156 12.7223 8.0751 11.8221C8.14674 10.9452 8.27659 10.4968 8.43597 10.184C8.81947 9.43139 9.43139 8.81947 10.184 8.43597C10.4968 8.27659 10.9452 8.14674 11.8221 8.0751C12.7223 8.00156 13.8868 8 15.6 8Z" fill="white" />
		<defs>
			<radialGradient id="paint0_radial_87_7153" cx="0" cy="0" r="1" gradientUnits="userSpaceOnUse" gradientTransform="translate(12 23) rotate(-55.3758) scale(25.5196)">
				<stop stop-color="#B13589" />
				<stop offset="0.79309" stop-color="#C62F94" />
				<stop offset="1" stop-color="#8A3AC8" />
			</radialGradient>
			<radialGradient id="paint1_radial_87_7153" cx="0" cy="0" r="1" gradientUnits="userSpaceOnUse" gradientTransform="translate(11 31) rotate(-65.1363) scale(22.5942)">
				<stop stop-color="#E0E8B7" />
				<stop offset="0.444662" stop-color="#FB8A2E" />
				<stop offset="0.71474" stop-color="#E2425C" />
				<stop offset="1" stop-color="#E2425C" stop-opacity="0" />
			</radialGradient>
			<radialGradient id="paint2_radial_87_7153" cx="0" cy="0" r="1" gradientUnits="userSpaceOnUse" gradientTransform="translate(0.500002 3) rotate(-8.1301) scale(38.8909 8.31836)">
				<stop offset="0.156701" stop-color="#406ADC" />
				<stop offset="0.467799" stop-color="#6A45BE" />
				<stop offset="1" stop-color="#6A45BE" stop-opacity="0" />
			</radialGradient>
		</defs>
	</symbol>
	<symbol id="linkedin" viewBox="0 0 16 16">
		<path fill="#0A66C2" d="M12.225 12.225h-1.778V9.44c0-.664-.012-1.519-.925-1.519-.926 0-1.068.724-1.068 1.47v2.834H6.676V6.498h1.707v.783h.024c.348-.594.996-.95 1.684-.925 1.802 0 2.135 1.185 2.135 2.728l-.001 3.14zM4.67 5.715a1.037 1.037 0 01-1.032-1.031c0-.566.466-1.032 1.032-1.032.566 0 1.031.466 1.032 1.032 0 .566-.466 1.032-1.032 1.032zm.889 6.51h-1.78V6.498h1.78v5.727zM13.11 2H2.885A.88.88 0 002 2.866v10.268a.88.88 0 00.885.866h10.226a.882.882 0 00.889-.866V2.865a.88.88 0 00-.889-.864z" />
	</symbol>
	<symbol id="youtube" viewBox="0 -7 48 48">
		<title>
			Youtube-color
		</title>
		<desc>
			Created with Sketch.
		</desc>
		<defs>
		</defs>
		<g id="Icons" stroke="none" stroke-width="1" fill="none" fill-rule="evenodd">
			<g id="Color-" transform="translate(-200.000000, -368.000000)" fill="#CE1312">
				<path d="M219.044,391.269916 L219.0425,377.687742 L232.0115,384.502244 L219.044,391.269916 Z M247.52,375.334163 C247.52,375.334163 247.0505,372.003199 245.612,370.536366 C243.7865,368.610299 241.7405,368.601235 240.803,368.489448 C234.086,368 224.0105,368 224.0105,368 L223.9895,368 C223.9895,368 213.914,368 207.197,368.489448 C206.258,368.601235 204.2135,368.610299 202.3865,370.536366 C200.948,372.003199 200.48,375.334163 200.48,375.334163 C200.48,375.334163 200,379.246723 200,383.157773 L200,386.82561 C200,390.73817 200.48,394.64922 200.48,394.64922 C200.48,394.64922 200.948,397.980184 202.3865,399.447016 C204.2135,401.373084 206.612,401.312658 207.68,401.513574 C211.52,401.885191 224,402 224,402 C224,402 234.086,401.984894 240.803,401.495446 C241.7405,401.382148 243.7865,401.373084 245.612,399.447016 C247.0505,397.980184 247.52,394.64922 247.52,394.64922 C247.52,394.64922 248,390.73817 248,386.82561 L248,383.157773 C248,379.246723 247.52,375.334163 247.52,375.334163 L247.52,375.334163 Z" id="Youtube">
				</path>
			</g>
		</g>
	</symbol>
	<symbol id="logo" viewBox="0 0 504.123 504.123">
		<linearGradient id="SVGID_1_" gradientUnits="userSpaceOnUse" x1="-5.3763" y1="578.335" x2="-5.3763" y2="648.3721" gradientTransform="matrix(7.8769 0 0 -7.8769 364.0537 4969.6694)">
			<stop offset="0" style="stop-color:#29D3DA" />
			<stop offset="0.519" style="stop-color:#0077FF" />
			<stop offset="0.999" style="stop-color:#064093" />
			<stop offset="1" style="stop-color:#084698" />
		</linearGradient>
		<path style="fill:url(#SVGID_1_);" d="M478.799,146.361c-30.09-41.685-72.649-73.728-122.234-90.734
	C246.611,81.038,164.612,179.499,164.612,297.173c0,18.282,2.048,36.084,5.797,53.248
	c17.353-119.997,120.572-212.196,245.382-212.196C437.587,138.224,458.673,141.076,478.799,146.361z" />
		<linearGradient id="SVGID_2_" gradientUnits="userSpaceOnUse" x1="-17.5862" y1="582.0045" x2="6.8338" y2="653.2426" gradientTransform="matrix(7.8769 0 0 -7.8769 364.0537 4969.6694)">
			<stop offset="0.012" style="stop-color:#E0B386" />
			<stop offset="0.519" style="stop-color:#DA498C" />
			<stop offset="1" style="stop-color:#961484" />
		</linearGradient>
		<path style="fill:url(#SVGID_2_);" d="M467.259,76.611C427.552,36.903,376.123,9.728,319.709,0
	C205.556,46.49,134.246,166.896,154.663,293.793c3.167,19.716,8.476,38.55,15.51,56.391
	c-2.143-132.395,93.152-249.73,227.738-271.407C421.4,74.996,444.644,74.413,467.259,76.611z" />
		<linearGradient id="SVGID_3_" gradientUnits="userSpaceOnUse" x1="-13.7259" y1="589.8769" x2="-7.7719" y2="620.7549" gradientTransform="matrix(7.8769 0 0 -7.8769 364.0537 4969.6694)">
			<stop offset="0.012" style="stop-color:#E0B386" />
			<stop offset="0.519" style="stop-color:#DA498C" />
			<stop offset="1" style="stop-color:#961484" />
		</linearGradient>
		<path style="fill:url(#SVGID_3_);" d="M356.573,55.627C246.619,81.038,164.62,179.499,164.62,297.173
	c0,17.841,1.969,35.202,5.553,51.972c-1.615-131.97,93.507-248.753,227.738-270.368c2.095-0.339,4.183-0.512,6.278-0.803
	C389.246,68.986,373.35,61.377,356.573,55.627z" />
		<linearGradient id="SVGID_4_" gradientUnits="userSpaceOnUse" x1="-24.4874" y1="604.8149" x2="5.3826" y2="685.3369" gradientTransform="matrix(7.8769 0 0 -7.8769 364.0537 4969.6694)">
			<stop offset="0" style="stop-color:#29D3DA" />
			<stop offset="0.519" style="stop-color:#0077FF" />
			<stop offset="0.999" style="stop-color:#064093" />
			<stop offset="1" style="stop-color:#084698" />
		</linearGradient>
		<path style="fill:url(#SVGID_4_);" d="M321.725,33.666C276.89,14.47,226.658,9.161,178.034,19.535
	C101.006,93.877,82.4,213.977,139.831,309.673c8.909,14.88,19.275,28.349,30.688,40.464
	c-44.442-106.031-5.506-231.416,95.988-292.336C284.231,47.167,302.797,39.196,321.725,33.666z" />
		<linearGradient id="SVGID_5_" gradientUnits="userSpaceOnUse" x1="-15.4808" y1="596.7249" x2="-17.3018" y2="636.6839" gradientTransform="matrix(7.8769 0 0 -7.8769 364.0537 4969.6694)">
			<stop offset="0" style="stop-color:#29D3DA" />
			<stop offset="0.519" style="stop-color:#0077FF" />
			<stop offset="0.999" style="stop-color:#064093" />
			<stop offset="1" style="stop-color:#084698" />
		</linearGradient>
		<path style="fill:url(#SVGID_5_);" d="M279.828,20.299C189.495,76.091,136.736,182.43,154.663,293.793
	c0.859,5.301,1.89,10.524,3.048,15.691c-20.874-95.815,20.047-198.404,108.796-251.683c17.723-10.634,36.289-18.605,55.217-24.127
	C308.2,27.876,294.156,23.513,279.828,20.299z" />
		<linearGradient id="SVGID_6_" gradientUnits="userSpaceOnUse" x1="-23.0593" y1="619.493" x2="-23.0593" y2="549.4581" gradientTransform="matrix(7.8769 0 0 -7.8769 364.0537 4969.6694)">
			<stop offset="0" style="stop-color:#29D3DA" />
			<stop offset="0.519" style="stop-color:#0077FF" />
			<stop offset="0.999" style="stop-color:#064093" />
			<stop offset="1" style="stop-color:#084698" />
		</linearGradient>
		<path style="fill:url(#SVGID_6_);" d="M25.324,357.77c30.09,41.685,72.649,73.728,122.234,90.734
	c109.954-25.411,191.953-123.872,191.953-241.546c0-18.282-2.048-36.084-5.797-53.248
	C316.361,273.707,213.142,365.907,88.348,365.907C66.536,365.907,45.45,363.055,25.324,357.77z" />
		<linearGradient id="SVGID_7_" gradientUnits="userSpaceOnUse" x1="-10.8498" y1="615.8241" x2="-35.2688" y2="544.5861" gradientTransform="matrix(7.8769 0 0 -7.8769 364.0537 4969.6694)">
			<stop offset="0.012" style="stop-color:#E0B386" />
			<stop offset="0.519" style="stop-color:#DA498C" />
			<stop offset="1" style="stop-color:#961484" />
		</linearGradient>
		<path style="fill:url(#SVGID_7_);" d="M36.864,427.52c39.708,39.708,91.136,66.875,147.551,76.603
	c114.168-46.482,185.462-166.896,165.045-293.786c-3.167-19.716-8.476-38.55-15.51-56.391
	c2.143,132.395-93.152,249.73-227.738,271.407C82.739,429.135,59.479,429.718,36.864,427.52z" />
		<linearGradient id="SVGID_8_" gradientUnits="userSpaceOnUse" x1="-14.7122" y1="607.9509" x2="-20.6622" y2="577.0759" gradientTransform="matrix(7.8769 0 0 -7.8769 364.0537 4969.6694)">
			<stop offset="0.012" style="stop-color:#E0B386" />
			<stop offset="0.519" style="stop-color:#DA498C" />
			<stop offset="1" style="stop-color:#961484" />
		</linearGradient>
		<path style="fill:url(#SVGID_8_);" d="M147.551,448.496c109.954-25.411,191.953-123.872,191.953-241.546
	c0-17.841-1.969-35.202-5.553-51.972c1.623,131.978-93.507,248.745-227.738,270.375c-2.095,0.339-4.183,0.512-6.278,0.803
	C114.893,435.145,130.773,442.754,147.551,448.496z" />
		<linearGradient id="SVGID_9_" gradientUnits="userSpaceOnUse" x1="-3.9471" y1="593.0148" x2="-33.8151" y2="512.4948" gradientTransform="matrix(7.8769 0 0 -7.8769 364.0537 4969.6694)">
			<stop offset="0" style="stop-color:#29D3DA" />
			<stop offset="0.519" style="stop-color:#0077FF" />
			<stop offset="0.999" style="stop-color:#064093" />
			<stop offset="1" style="stop-color:#084698" />
		</linearGradient>
		<path style="fill:url(#SVGID_9_);" d="M182.414,470.465c44.812,19.204,95.043,24.505,143.675,14.131
	c77.028-74.342,95.634-194.442,38.219-290.139c-8.925-14.872-19.291-28.349-30.704-40.464
	c44.449,106.031,5.522,231.408-95.988,292.336C219.892,456.964,201.342,464.935,182.414,470.465z" />
		<linearGradient id="SVGID_10_" gradientUnits="userSpaceOnUse" x1="-12.9509" y1="601.1051" x2="-11.1349" y2="561.1451" gradientTransform="matrix(7.8769 0 0 -7.8769 364.0537 4969.6694)">
			<stop offset="0" style="stop-color:#29D3DA" />
			<stop offset="0.519" style="stop-color:#0077FF" />
			<stop offset="0.999" style="stop-color:#064093" />
			<stop offset="1" style="stop-color:#084698" />
		</linearGradient>
		<path style="fill:url(#SVGID_10_);" d="M224.295,483.832c90.34-55.792,143.092-162.123,125.172-273.495
	c-0.859-5.293-1.875-10.524-3.048-15.683c20.874,95.807-20.047,198.404-108.796,251.676c-17.723,10.634-36.273,18.605-55.201,24.127
	C195.923,476.262,209.967,480.618,224.295,483.832z" />
	</symbol>
	<symbol id="arrow-left" viewBox="0 0 476.213 476.213" fill="currentColor">
		<polygon points="476.213,223.107 57.427,223.107 151.82,128.713 130.607,107.5 0,238.106 130.607,368.714 151.82,347.5 
	57.427,253.107 476.213,253.107 " />
	</symbol>
	<symbol id="cart" viewBox="0 0 512 512" fill="currentColor">
		<path d="M494.364,133.438c-11.525-15.738-29.351-25.678-48.804-27.219L126.243,80.918l-3.129-17.749
		c-5.253-29.676-28.858-52.657-58.672-57.066L24.59,0.187c-9.5-1.396-18.34,5.172-19.752,14.658
		c-1.409,9.512,5.158,18.356,14.657,19.761v-0.008l39.861,5.907c14.97,2.218,26.868,13.785,29.497,28.71l54.013,306.134
		c5.073,28.735,30.027,49.669,59.207,49.678h221.97c9.599,0,17.39-7.792,17.39-17.39c0-9.607-7.791-17.398-17.39-17.398h-221.97
		c-12.282,0.009-22.814-8.836-24.946-20.934l-5-28.349h244.879c31.243,0,58.35-21.55,65.372-52.005l23.254-100.767
		c1.148-5,1.721-10.06,1.721-15.086C507.352,158.962,502.875,145.04,494.364,133.438z M296.499,229.855v82.118h-72.469v-82.118
		H296.499z M224.031,206.652v-88.899l72.469,5.746v83.154H224.031z M319.685,229.855h72.469v82.118h-72.469V229.855z
		 M319.685,206.652V125.33l72.469,5.745v75.577H319.685z M200.839,115.911v90.74h-52.408l-16.983-96.237L200.839,115.911z
		 M152.524,229.855h48.315v82.118h-33.828L152.524,229.855z M454.131,282.444c-3.981,17.278-19.385,29.53-37.125,29.53h-1.653
		v-82.118h50.91L454.131,282.444z M477.385,181.668l-6.969,30.207v-5.223h-55.063v-73.736l27.921,2.208
		c11.045,0.866,21.166,6.516,27.707,15.447c4.837,6.592,7.388,14.495,7.388,22.526C478.369,175.949,478.027,178.809,477.385,181.668
		z" />
		<path d="M215.344,450.165c-17.077,0-30.909,13.853-30.909,30.926c0,17.073,13.832,30.909,30.909,30.909
		c17.077,0,30.926-13.836,30.926-30.909C246.27,464.018,232.421,450.165,215.344,450.165z" />
		<path d="M381.537,450.165c-17.073,0-30.914,13.853-30.914,30.926c0,17.073,13.84,30.909,30.914,30.909
		c17.077,0,30.922-13.836,30.922-30.909C412.459,464.018,398.615,450.165,381.537,450.165z" />
	</symbol>
	<symbol id="delete" viewBox="0 0 32 32" fill="currentColor">
		<rect height="22" id="XMLID_14_" width="16" x="8" y="7" />
		<line id="XMLID_4_" x1="16" x2="16" y1="10" y2="26" />
		<line id="XMLID_118_" x1="20" x2="20" y1="10" y2="26" />
		<line id="XMLID_3_" x1="12" x2="12" y1="10" y2="26" />
		<line id="XMLID_5_" x1="5" x2="27" y1="7" y2="7" />
		<rect height="4" id="XMLID_6_" width="6" x="13" y="3" />
		<g id="XMLID_386_" />
	</symbol>
</svg>
