<svg xmlns="http://www.w3.org/2000/svg" style="display: none;">
	<symbol id="one" viewBox="0 0 512 512">
		<path fill-rule="evenodd" clip-rule="evenodd" d="M408.056 327.995C403.62 332.993 398.723 337.573 393.432 341.668C414.681 366.693 427.5 399.099 427.5 434.5C427.5 440.023 431.977 444.5 437.5 444.5C443.023 444.5 447.5 440.023 447.5 434.5C447.5 393.818 432.642 356.606 408.056 327.995ZM221.92 271.093C134.205 274.035 64 346.069 64 434.5C64 440.023 68.4772 444.5 74 444.5C79.5228 444.5 84 440.023 84 434.5C84 355.575 147.716 291.532 226.516 291.003C224.376 284.614 222.823 277.956 221.92 271.093Z" stroke="currentColor" />
		<path fill-rule="evenodd" clip-rule="evenodd" d="M344.897 151.327C344.965 149.893 345 148.451 345 147C345 97.8467 305.153 58 256 58C206.847 58 167 97.8467 167 147C167 185.017 190.836 217.466 224.379 230.219C222.708 236.704 221.629 243.428 221.205 250.328C178.068 235.808 147 195.032 147 147C147 86.801 195.801 38 256 38C316.199 38 365 86.801 365 147C365 150.174 364.864 153.317 364.598 156.423C358.287 154.126 351.699 152.406 344.897 151.327Z" stroke="currentColor" />
		<path fill-rule="evenodd" clip-rule="evenodd" d="M328 364C387.094 364 435 316.094 435 257C435 197.906 387.094 150 328 150C268.906 150 221 197.906 221 257C221 316.094 268.906 364 328 364ZM286.035 219.893C282.11 216.008 275.778 216.04 271.893 219.965C268.008 223.89 268.04 230.222 271.965 234.107L338.606 300.07L385.035 254.113C388.96 250.228 388.992 243.896 385.107 239.971C381.222 236.046 374.89 236.013 370.965 239.899L338.606 271.93L286.035 219.893Z" stroke="currentColor" />
	</symbol>
	<symbol id="cloud" viewBox="0 0 24 24">
		<path d="M5.25589 16C3.8899 15.0291 3 13.4422 3 11.6493C3 9.20008 4.8 6.9375 7.5 6.5C8.34694 4.48637 10.3514 3 12.6893 3C15.684 3 18.1317 5.32251 18.3 8.25C19.8893 8.94488 21 10.6503 21 12.4969C21 14.0582 20.206 15.4339 19 16.2417M12 21V11M12 21L9 18M12 21L15 18" stroke="currentColor" stroke-width="2" stroke-linecap="round" stroke-linejoin="round" />
	</symbol>
	<symbol id="address" viewBox="0 0 256 256">
		<path d="M83.19,174.4a8,8,0,0,0,11.21-1.6,52,52,0,0,1,83.2,0,8,8,0,1,0,12.8-9.6A67.88,67.88,0,0,0,163,141.51a40,40,0,1,0-53.94,0A67.88,67.88,0,0,0,81.6,163.2,8,8,0,0,0,83.19,174.4ZM112,112a24,24,0,1,1,24,24A24,24,0,0,1,112,112Zm96-88H64A16,16,0,0,0,48,40V64H32a8,8,0,0,0,0,16H48v40H32a8,8,0,0,0,0,16H48v40H32a8,8,0,0,0,0,16H48v24a16,16,0,0,0,16,16H208a16,16,0,0,0,16-16V40A16,16,0,0,0,208,24Zm0,192H64V40H208Z" stroke="currentColor">
		</path>
	</symbol>
	<symbol id="vite" viewBox="0 0 256 257">
		<defs>
			<linearGradient id="IconifyId1813088fe1fbc01fb466" x1="-.828%" x2="57.636%" y1="7.652%" y2="78.411%">
				<stop offset="0%" stop-color="#41D1FF">
				</stop>
				<stop offset="100%" stop-color="#BD34FE">
				</stop>
			</linearGradient>
			<linearGradient id="IconifyId1813088fe1fbc01fb467" x1="43.376%" x2="50.316%" y1="2.242%" y2="89.03%">
				<stop offset="0%" stop-color="#FFEA83">
				</stop>
				<stop offset="8.333%" stop-color="#FFDD35">
				</stop>
				<stop offset="100%" stop-color="#FFA800">
				</stop>
			</linearGradient>
		</defs>
		<path fill="url(#IconifyId1813088fe1fbc01fb466)" d="M255.153 37.938L134.897 252.976c-2.483 4.44-8.862 4.466-11.382.048L.875 37.958c-2.746-4.814 1.371-10.646 6.827-9.67l120.385 21.517a6.537 6.537 0 0 0 2.322-.004l117.867-21.483c5.438-.991 9.574 4.796 6.877 9.62Z">
		</path>
		<path fill="url(#IconifyId1813088fe1fbc01fb467)" d="M185.432.063L96.44 17.501a3.268 3.268 0 0 0-2.634 3.014l-5.474 92.456a3.268 3.268 0 0 0 3.997 3.378l24.777-5.718c2.318-.535 4.413 1.507 3.936 3.838l-7.361 36.047c-.495 2.426 1.782 4.5 4.151 3.78l15.304-4.649c2.372-.72 4.652 1.36 4.15 3.788l-11.698 56.621c-.732 3.542 3.979 5.473 5.943 2.437l1.313-2.028l72.516-144.72c1.215-2.423-.88-5.186-3.54-4.672l-25.505 4.922c-2.396.462-4.435-1.77-3.759-4.114l16.646-57.705c.677-2.35-1.37-4.583-3.769-4.113Z">
		</path>
	</symbol>
	<symbol id="edit" viewBox="0 0 494.936 494.936">
		<path d="M389.844,182.85c-6.743,0-12.21,5.467-12.21,12.21v222.968c0,23.562-19.174,42.735-42.736,42.735H67.157
			c-23.562,0-42.736-19.174-42.736-42.735V150.285c0-23.562,19.174-42.735,42.736-42.735h267.741c6.743,0,12.21-5.467,12.21-12.21
			s-5.467-12.21-12.21-12.21H67.157C30.126,83.13,0,113.255,0,150.285v267.743c0,37.029,30.126,67.155,67.157,67.155h267.741
			c37.03,0,67.156-30.126,67.156-67.155V195.061C402.054,188.318,396.587,182.85,389.844,182.85z" />
		<path d="M483.876,20.791c-14.72-14.72-38.669-14.714-53.377,0L221.352,229.944c-0.28,0.28-3.434,3.559-4.251,5.396l-28.963,65.069
			c-2.057,4.619-1.056,10.027,2.521,13.6c2.337,2.336,5.461,3.576,8.639,3.576c1.675,0,3.362-0.346,4.96-1.057l65.07-28.963
			c1.83-0.815,5.114-3.97,5.396-4.25L483.876,74.169c7.131-7.131,11.06-16.61,11.06-26.692
			C494.936,37.396,491.007,27.915,483.876,20.791z M466.61,56.897L257.457,266.05c-0.035,0.036-0.055,0.078-0.089,0.107
			l-33.989,15.131L238.51,247.3c0.03-0.036,0.071-0.055,0.107-0.09L447.765,38.058c5.038-5.039,13.819-5.033,18.846,0.005
			c2.518,2.51,3.905,5.855,3.905,9.414C470.516,51.036,469.127,54.38,466.61,56.897z" />
	</symbol>
	<symbol id="delete" viewBox="0 0 482.428 482.429">
		<path d="M381.163,57.799h-75.094C302.323,25.316,274.686,0,241.214,0c-33.471,0-61.104,25.315-64.85,57.799h-75.098
			c-30.39,0-55.111,24.728-55.111,55.117v2.828c0,23.223,14.46,43.1,34.83,51.199v260.369c0,30.39,24.724,55.117,55.112,55.117
			h210.236c30.389,0,55.111-24.729,55.111-55.117V166.944c20.369-8.1,34.83-27.977,34.83-51.199v-2.828
			C436.274,82.527,411.551,57.799,381.163,57.799z M241.214,26.139c19.037,0,34.927,13.645,38.443,31.66h-76.879
			C206.293,39.783,222.184,26.139,241.214,26.139z M375.305,427.312c0,15.978-13,28.979-28.973,28.979H136.096
			c-15.973,0-28.973-13.002-28.973-28.979V170.861h268.182V427.312z M410.135,115.744c0,15.978-13,28.979-28.973,28.979H101.266
			c-15.973,0-28.973-13.001-28.973-28.979v-2.828c0-15.978,13-28.979,28.973-28.979h279.897c15.973,0,28.973,13.001,28.973,28.979
			V115.744z" />
		<path d="M171.144,422.863c7.218,0,13.069-5.853,13.069-13.068V262.641c0-7.216-5.852-13.07-13.069-13.07
			c-7.217,0-13.069,5.854-13.069,13.07v147.154C158.074,417.012,163.926,422.863,171.144,422.863z" />
		<path d="M241.214,422.863c7.218,0,13.07-5.853,13.07-13.068V262.641c0-7.216-5.854-13.07-13.07-13.07
			c-7.217,0-13.069,5.854-13.069,13.07v147.154C228.145,417.012,233.996,422.863,241.214,422.863z" />
		<path d="M311.284,422.863c7.217,0,13.068-5.853,13.068-13.068V262.641c0-7.216-5.852-13.07-13.068-13.07
			c-7.219,0-13.07,5.854-13.07,13.07v147.154C298.213,417.012,304.067,422.863,311.284,422.863z" />
	</symbol>
</svg>
